<?xml version="1.0" standalone="no"?>
<!DOCTYPE svg PUBLIC "-//W3C//DTD SVG 20010904//EN" "http://www.w3.org/TR/2001/REC-SVG-20010904/DTD/svg10.dtd">
<svg xmlns="http://www.w3.org/2000/svg" xmlns:xlink="http://www.w3.org/1999/xlink" width="56.6929pt" height="56.6929pt"><g id="layer1"><path id="shape0" transform="matrix(-0.999999 0.00111838 0.000568108 -1 61.9437 61.9783)" fill="none" stroke="#000000" stroke-width="1.25000000000" stroke-linecap="square" stroke-linejoin="miter" stroke-miterlimit="2.00000000000" d="M31.5834 0C14.1404 -9.36912e-16 2.13608e-15 12.4043 0 27.7057C-1.87975e-15 41.758 12.4435 53.1497 27.7934 53.1497C41.7478 53.1497 53.0601 43.0238 53.0601 30.5328C53.0601 19.2909 42.879 10.1776 30.32 10.1776C19.1565 10.1776 10.1067 18.2783 10.1067 28.2711C10.1067 37.3271 18.3081 44.6684 28.425 44.6684C37.4954 44.6684 44.8484 38.0865 44.8484 29.9674C44.8484 22.7851 38.3438 16.9627 30.32 16.9627C22.994 16.9627 17.055 22.2788 17.055 28.8365C17.055 34.7697 22.4284 39.5796 29.0567 39.5796"></path></g></svg>
