<svg viewBox="0 0 31 31" version="1.1" xmlns="http://www.w3.org/2000/svg">
	<desc>Created with Raphael 2.1.0</desc>
	<defs>
		<linearGradient id="53290-_0050af-_002c62" x1="0" y1="1" x2="6.123233995736766e-17" y2="0" gradientTransform="matrix(1,0,0,1,-4,-4)">
			<stop offset="0%" stop-color="#333333"/>
			<stop offset="100%" stop-color="#333333"/>
		</linearGradient>
	</defs>
	<rect x="2" y="2.3" width="27" height="20" r="0" rx="0" ry="0" fill="#000000" stroke="none" opacity="1" />
	<path style="stroke-linejoin: round; opacity: 0;"
		fill="none"
		stroke="#333333"
		d="M28.936,2.099H2.046C1.5399999999999998,2.099,1.1269999999999998,2.5130000000000003,1.1269999999999998,3.019V24.116C1.1269999999999998,24.622,1.5399999999999998,25.035,2.046,25.035H19.108V25.032H28.936C29.442,25.032,29.856,24.619,29.856,24.111V3.019C29.854,2.513,29.439,2.099,28.936,2.099ZM28.562,20.062C28.562,20.474,28.224,20.812,27.812,20.812H3.062C2.649,20.812,2.312,20.474,2.312,20.062V4.062000000000001C2.312,3.6490000000000014,2.649,3.312000000000001,3.062,3.312000000000001H27.812C28.224,3.312000000000001,28.562,3.6490000000000014,28.562,4.062000000000001V20.062ZM20.518,28.4C20.485,28.365,20.456,28.345,20.45,28.337999999999997L20.439999999999998,28.333999999999996L20.432,28.329999999999995C20.432,28.329999999999995,20.386,28.308999999999994,20.313,28.267999999999994C20.205,28.211999999999993,20.029999999999998,28.123999999999995,19.868,28.030999999999995C19.706,27.933999999999994,19.548,27.831999999999994,19.474999999999998,27.759999999999994C19.467,27.745999999999995,19.439999999999998,27.680999999999994,19.416999999999998,27.589999999999993C19.334,27.269999999999992,19.255999999999997,26.639999999999993,19.197,26.05099999999999H11.697C11.674,26.28099999999999,11.649,26.51799999999999,11.620999999999999,26.74199999999999C11.585999999999999,27.01399999999999,11.547999999999998,27.26599999999999,11.508,27.45799999999999C11.488,27.55399999999999,11.469,27.632999999999992,11.449,27.68799999999999C11.44,27.71299999999999,11.431,27.737999999999992,11.425,27.749999999999993C11.422,27.755999999999993,11.42,27.759999999999994,11.418000000000001,27.762999999999995C11.324000000000002,27.858999999999995,11.078000000000001,28.008999999999993,10.865,28.122999999999994C10.758000000000001,28.184999999999995,10.656,28.232999999999993,10.582,28.268999999999995C10.508000000000001,28.305999999999994,10.463000000000001,28.330999999999996,10.463000000000001,28.330999999999996L10.456000000000001,28.334999999999997L10.448000000000002,28.339C10.438000000000002,28.348,10.410000000000002,28.360999999999997,10.378000000000002,28.401C10.347000000000001,28.438,10.311000000000002,28.504,10.311000000000002,28.586C10.313000000000002,28.587999999999997,10.307000000000002,28.622999999999998,10.305000000000001,28.674C10.305000000000001,28.717,10.312000000000001,28.791999999999998,10.373000000000001,28.858999999999998C10.434000000000001,28.921,10.516000000000002,28.938999999999997,10.590000000000002,28.938999999999997H20.306C20.379,28.938999999999997,20.459,28.917999999999996,20.521,28.858999999999998C20.583000000000002,28.796,20.589000000000002,28.717,20.589000000000002,28.674C20.588,28.623,20.581000000000003,28.588,20.582,28.586C20.583,28.503,20.548,28.439,20.518,28.4Z"
		stroke-width="3"
		stroke-linejoin="round"
		opacity="0"
		
	/>
	<path style="opacity: 1; fill-opacity: 1;" fill="url(#53290-_0050af-_002c62)"
		stroke="none"
		d="M28.936,2.099H2.046C1.5399999999999998,2.099,1.1269999999999998,2.5130000000000003,1.1269999999999998,3.019V24.116C1.1269999999999998,24.622,1.5399999999999998,25.035,2.046,25.035H19.108V25.032H28.936C29.442,25.032,29.856,24.619,29.856,24.111V3.019C29.854,2.513,29.439,2.099,28.936,2.099ZM28.562,20.062C28.562,20.474,28.224,20.812,27.812,20.812H3.062C2.649,20.812,2.312,20.474,2.312,20.062V4.062000000000001C2.312,3.6490000000000014,2.649,3.312000000000001,3.062,3.312000000000001H27.812C28.224,3.312000000000001,28.562,3.6490000000000014,28.562,4.062000000000001V20.062ZM20.518,28.4C20.485,28.365,20.456,28.345,20.45,28.337999999999997L20.439999999999998,28.333999999999996L20.432,28.329999999999995C20.432,28.329999999999995,20.386,28.308999999999994,20.313,28.267999999999994C20.205,28.211999999999993,20.029999999999998,28.123999999999995,19.868,28.030999999999995C19.706,27.933999999999994,19.548,27.831999999999994,19.474999999999998,27.759999999999994C19.467,27.745999999999995,19.439999999999998,27.680999999999994,19.416999999999998,27.589999999999993C19.334,27.269999999999992,19.255999999999997,26.639999999999993,19.197,26.05099999999999H11.697C11.674,26.28099999999999,11.649,26.51799999999999,11.620999999999999,26.74199999999999C11.585999999999999,27.01399999999999,11.547999999999998,27.26599999999999,11.508,27.45799999999999C11.488,27.55399999999999,11.469,27.632999999999992,11.449,27.68799999999999C11.44,27.71299999999999,11.431,27.737999999999992,11.425,27.749999999999993C11.422,27.755999999999993,11.42,27.759999999999994,11.418000000000001,27.762999999999995C11.324000000000002,27.858999999999995,11.078000000000001,28.008999999999993,10.865,28.122999999999994C10.758000000000001,28.184999999999995,10.656,28.232999999999993,10.582,28.268999999999995C10.508000000000001,28.305999999999994,10.463000000000001,28.330999999999996,10.463000000000001,28.330999999999996L10.456000000000001,28.334999999999997L10.448000000000002,28.339C10.438000000000002,28.348,10.410000000000002,28.360999999999997,10.378000000000002,28.401C10.347000000000001,28.438,10.311000000000002,28.504,10.311000000000002,28.586C10.313000000000002,28.587999999999997,10.307000000000002,28.622999999999998,10.305000000000001,28.674C10.305000000000001,28.717,10.312000000000001,28.791999999999998,10.373000000000001,28.858999999999998C10.434000000000001,28.921,10.516000000000002,28.938999999999997,10.590000000000002,28.938999999999997H20.306C20.379,28.938999999999997,20.459,28.917999999999996,20.521,28.858999999999998C20.583000000000002,28.796,20.589000000000002,28.717,20.589000000000002,28.674C20.588,28.623,20.581000000000003,28.588,20.582,28.586C20.583,28.503,20.548,28.439,20.518,28.4Z"
		
		opacity="1"
		fill-opacity="1"/>
</svg>